inDegrees=no
num_controls=7
num_derivatives=13
num_iterations=158
num_multipliers=7
num_parameters=0
num_slacks=7
num_states=26
objective=0.253377
objective_accelerations=0.000000
objective_balance=0.001808
objective_effort=0.049950
objective_height=0.189209
objective_ligament=0.012410
solver_duration=2112.153988
status=Solve_Succeeded
success=true
DataType=double
version=3
OpenSimVersion=4.5
endheader
time	/jointset/ground_pelvis/pelvis_tilt/value	/jointset/ground_pelvis/pelvis_tx/value	/jointset/ground_pelvis/pelvis_ty/value	/jointset/hip_l/hip_flexion_l/value	/jointset/hip_l/hip_adduction_l/value	/jointset/hip_l/hip_rotation_l/value	/jointset/back/lumbar_extension/value	/jointset/patellofemoral_l/patellar_flexion_l/value	/jointset/knee_l/knee_flexion_l/value	/jointset/knee_l/knee_adduction_l/value	/jointset/knee_l/knee_rotation_l/value	/jointset/ankle_l/ankle_angle_l/value	/jointset/subtalar_l/subtalar_angle_l/value	/jointset/ground_pelvis/pelvis_tilt/speed	/jointset/ground_pelvis/pelvis_tx/speed	/jointset/ground_pelvis/pelvis_ty/speed	/jointset/hip_l/hip_flexion_l/speed	/jointset/hip_l/hip_adduction_l/speed	/jointset/hip_l/hip_rotation_l/speed	/jointset/back/lumbar_extension/speed	/jointset/patellofemoral_l/patellar_flexion_l/speed	/jointset/knee_l/knee_flexion_l/speed	/jointset/knee_l/knee_adduction_l/speed	/jointset/knee_l/knee_rotation_l/speed	/jointset/ankle_l/ankle_angle_l/speed	/jointset/subtalar_l/subtalar_angle_l/speed	/forceset/tau_hip_flexion_l	/forceset/tau_hip_adduction_l	/forceset/tau_hip_rotation_l	/forceset/tau_knee_flexion_l	/forceset/tau_ankle_angle_l	/forceset/tau_subtalar_angle_l	/forceset/tau_lumbar_extension	lambda_cid13_p0	lambda_cid13_p1	lambda_cid13_p2	lambda_cid13_p3	lambda_cid13_p4	lambda_cid13_p5	lambda_cid14_p0	/jointset/ground_pelvis/pelvis_tilt/accel	/jointset/ground_pelvis/pelvis_tx/accel	/jointset/ground_pelvis/pelvis_ty/accel	/jointset/hip_l/hip_flexion_l/accel	/jointset/hip_l/hip_adduction_l/accel	/jointset/hip_l/hip_rotation_l/accel	/jointset/back/lumbar_extension/accel	/jointset/patellofemoral_l/patellar_flexion_l/accel	/jointset/knee_l/knee_flexion_l/accel	/jointset/knee_l/knee_adduction_l/accel	/jointset/knee_l/knee_rotation_l/accel	/jointset/ankle_l/ankle_angle_l/accel	/jointset/subtalar_l/subtalar_angle_l/accel	gamma_cid13_p0	gamma_cid13_p1	gamma_cid13_p2	gamma_cid13_p3	gamma_cid13_p4	gamma_cid13_p5	gamma_cid14_p0
1	-0.2051652033540729	-0.01637694382081	0.3560333876299013	2.18164603802302	-0.2393439334121194	0.4983479487203554	-0.4362990798139553	2.181622646581403	2.181622646581336	0.08023602198868618	-0.1742824758851804	0.4362395434201052	0.4242088967583851	0.0009702038640421708	-0.000183398539789903	-5.60667271221025e-06	-0.0003462737951117336	-0.0001895369580123116	-0.001305447473856935	0.0003552219491134452	-4.679908521710275e-05	-4.679908521714764e-05	0.0009411329229265829	-0.0002109755561965097	-0.0005877931772141137	-0.0008440882406263329	-0.1007810645520695	-0.03312126495803521	-0.006084227774322847	-0.3962280172123224	0.07856446877965001	0.01289136316588121	0.1172554586559971	-6.542246659316511	3.984284615392375	-10.55387266881812	1.074637391255681	-461.2093753274746	-161.2596799289766	-0.0153059757096137	0.08557536740459912	-0.01710211347086387	0.004957878041517509	-0.1658283632521291	0.2305667566338038	2.236115117559073	-0.03715030460532705	0.01846941925263196	0.01846941925262898	-1.851746227307197	-0.5726435774475369	0.02482760851713285	0.3784285303674347	-1.180781877119863e-08	9.340141482122321e-09	4.752945648377128e-09	-4.536386682487856e-09	8.701329719141198e-09	6.445577194890125e-08	-1.426282604467203e-08
1.01	-0.2051512348912896	-0.01637946656020306	0.3560335071716226	2.181636426685948	-0.2393388505602656	0.4984056965809943	-0.4362971846408452	2.181622831103791	2.181622831103806	0.08018658513523368	-0.1743037670953186	0.4362340246537209	0.4242114841079095	0.001823912005155232	-0.0003045408136626715	2.252175244015836e-05	-0.001363322784195792	0.000750186209760107	0.008804482788611581	4.194269647957884e-05	5.561959687915519e-05	5.561959687910884e-05	-0.007500020500957712	-0.003128199157722913	-0.0006042714453995959	0.0005695665807898046	-0.1005295720713019	-0.03338363435675155	-0.006476296383813055	-0.3961561400801291	0.07883140298549558	0.01275503221700259	0.1171246841341041	-6.480204177349828	4.063712025350611	-10.60203903925702	0.908672739365203	-461.2331510221991	-161.0267667929909	-0.01528423195936438	0.08532811824977718	-0.007130314269041659	0.000693898980522248	-0.03774615651178591	-0.04271440796288422	-0.209150142304875	-0.02569723236278336	0.001919581300640603	0.001919581300613368	0.1589694274091994	-0.01339916307044109	-0.0281354821048081	-0.09596707403116064	-1.657150100280502e-08	1.021710139720249e-08	8.963926242528983e-09	-6.522862576874959e-09	1.277880491245946e-08	8.570573542381802e-08	-2.035565430687563e-08
1.02	-0.2051287174309405	-0.01638270272831989	0.3560336987124411	2.181623024261006	-0.2393380483776966	0.4984430273196807	-0.4362978783596096	2.181623198110722	2.181623198110819	0.08015259061301427	-0.1743266580237864	0.4362256911171359	0.4242044477992361	0.002680003377686247	-0.0003260842845463077	8.793146731432863e-06	-0.001104491364287209	-0.001045670814941517	-0.005388871864744642	-0.000162556426960088	-1.030217652377421e-05	-1.03021765238076e-05	0.004029599168688291	-0.0005309192218594541	-0.001150747218323565	-0.002768819880189117	-0.1002780795905353	-0.03364600375546804	-0.006868364993298483	-0.3960842629479346	0.0790983371913442	0.01261870126812636	0.1169939096122112	-6.418238184584198	4.143328781703508	-10.65043603578812	0.7450235441539202	-461.2589668594605	-160.7895990978448	-0.01526254862521625	0.08605201368819471	0.002817647126922219	-0.003413528130733295	0.0893477185465526	-0.316549281860943	-2.624541865605866	-0.01539427876656503	-0.01519867184719068	-0.01519867184719078	2.142408391398873	0.5302571300304381	-0.08117189243072344	-0.5719797261116164	1.743456779696804e-08	-1.576171783297508e-08	-5.779922100405808e-09	8.888230575200371e-09	-1.371816733194661e-08	-1.052705252310068e-07	2.231688928430589e-08
1.03	-0.2050990603728456	-0.01638591162744515	0.3560333967081469	2.181616913565992	-0.239360865293529	0.4982866234289857	-0.4362986600034595	2.181622772144971	2.18162277214507	0.08027662206192121	-0.1743117908794345	0.4362104158737787	0.4241538773519511	0.003104380420137406	-0.0003249476157900532	-9.098503346013216e-05	-6.490523408818542e-05	-0.003178438863459949	-0.02280692124199646	0.0001697397744840709	-3.647374089975428e-05	-3.647374089972673e-05	0.01823944127650106	0.002748815711629248	-0.001879720651258579	-0.006795139127470807	-0.1002363955335113	-0.03378208174485776	-0.006605554576324395	-0.395993906771432	0.07891013314099156	0.01291466803927317	0.1169773451764619	-6.394364172635327	3.959782990980143	-10.56311703736443	0.7391660931934108	-461.0283324445926	-161.1407737160067	-0.01528787586510326	-0.001410694352062845	-0.002621144791689587	-0.01653688508543852	0.119187333609771	-0.1107472435078237	-0.8376831485358444	0.08206838700963182	0.009422827105944911	0.009422827105932592	0.6796950361161378	0.1134942548584844	-0.06506338045918986	-0.2354304354994346	5.183624630114314e-08	-4.201457562585951e-08	-2.071718706514772e-08	2.447684994203562e-08	-4.052712373388066e-08	-2.984123596014424e-07	6.54870387107263e-08
1.04	-0.2050695677931043	-0.01638938572419148	0.3560314415376264	2.181622783386919	-0.2393948312252789	0.4980485897095695	-0.4362912133218068	2.181623234308744	2.181623234308844	0.08046663651503869	-0.1742867938697786	0.4361885902337472	0.4240795492299007	0.002647107707577401	-0.0003791238087617232	-0.0003218400985262723	0.001291611830239825	-0.003275473998399642	-0.02171483760928863	0.001483108672327157	0.0001673237282740814	0.0001673237282741719	0.01722620001006058	0.00149505383913392	-0.002460826553566671	-0.007520354833272323	-0.1001947114764839	-0.033918159734248	-0.006342744159346184	-0.3959035505949285	0.0787219290906403	0.01321063481042022	0.1169607807407159	-6.371578863210816	3.778025760666671	-10.47790806955184	0.7419345147609662	-460.8082503485844	-161.4726756778377	-0.01531397849135272	-0.09027793731399594	-0.008244925218697083	-0.0296289051056609	0.1527339053724001	0.09059730085484841	1.07748473638606	0.1808202605131769	0.03079513486276573	0.03079513486276603	-0.9022082834517707	-0.3764422311663563	-0.05159838630545346	0.08824098218438939	3.118372273960377e-08	-2.486329023353668e-08	-1.125365536746611e-08	1.444885072270509e-08	-2.488598346664311e-08	-1.759211745242596e-07	3.879574408840923e-08
1.05	-0.2050432641053167	-0.01639363160214002	0.3560273441438596	2.181638667676856	-0.2394250101890412	0.4978762993230754	-0.4362727592955835	2.181625997205708	2.181625997205803	0.08060055665753932	-0.174290002716412	0.4361618962370732	0.4240059952980923	0.003053209352976062	-0.0004741924747239566	-0.0004368965765517696	0.001406750717110342	-0.002944494420819059	-0.01378832689176364	0.001660326530899254	0.0003448674358687548	0.0003448674358688348	0.01037256527599335	-0.001973437884380335	-0.00282284077540679	-0.007438874691251014	-0.1004327898113784	-0.03401051532511425	-0.006482572076421059	-0.3959634495268917	0.07836084927753162	0.01318325651156133	0.1169423462845758	-6.515207958377931	3.799524991300903	-10.46358570016372	1.031188417576701	-461.0006543402919	-161.4476276787368	-0.01528758156100919	0.1719929618084384	-0.01075832675161735	0.006665880336245451	-0.1308687736874211	-0.02327819378368613	0.4934718674989367	-0.1459329578870271	0.005174061769159462	0.005174061769139543	-0.4547295189258334	-0.3075452789875656	-0.02023179729405672	-0.06916421480499599	8.810755363511121e-09	-6.355625366676358e-09	-1.027598774083911e-09	3.620332172557021e-09	-7.918277678494187e-09	-4.356645758934051e-08	9.921279339569499e-09
1.06	-0.2049997116518099	-0.01639895226464178	0.3560239181652099	2.181641348824848	-0.239457404653027	0.4977519215693708	-0.436268954192041	2.181629323554359	2.18162932355445	0.08069038276259403	-0.1743229950074897	0.4361332363267468	0.423925803018701	0.006096860852054855	-0.0005940807194073302	-0.0001875570750778168	-0.001349016557290437	-0.003718574042972446	-0.01213231105170995	-0.001446675867168079	0.0002800140659168699	0.0002800140659169388	0.00840739252026094	-0.004461635049638686	-0.002854009284078282	-0.008848024349869709	-0.1006708681462725	-0.03410287091598125	-0.006622399993493621	-0.396023348458854	0.07799976946442476	0.0131558782127027	0.1169239118284357	-6.657224946023136	3.818547290047025	-10.44636160435056	1.315153572463526	-461.1857397581412	-161.4373883183323	-0.01526069385807093	0.4372320334220999	-0.01320884096295663	0.04325029079423184	-0.4214473268818869	-0.1304145390919122	-0.1766142391082028	-0.4760237908146913	-0.01768428064657233	-0.01768428064657215	0.07548411221518787	-0.180383319515157	0.01457075632818807	-0.2098849779436309	8.461420840980743e-10	1.193725709408667e-09	-8.112514795671756e-10	1.604027639932192e-09	-3.240642408694328e-09	-3.726580933863614e-09	1.771946967622402e-09
